<?xml version="1.0" encoding="UTF-8" standalone="no"?>
<svg
   version="1.0"
   width="55pt"
   height="55pt"
   viewBox="0 0 55 55"
   preserveAspectRatio="xMidYMid"
   id="svg7"
   sodipodi:docname="mascota.svg"
   inkscape:version="1.3.2 (091e20e, 2023-11-25, custom)"
   inkscape:export-filename="mascota.svg"
   inkscape:export-xdpi="96"
   inkscape:export-ydpi="96"
   xmlns:inkscape="http://www.inkscape.org/namespaces/inkscape"
   xmlns:sodipodi="http://sodipodi.sourceforge.net/DTD/sodipodi-0.dtd"
   xmlns="http://www.w3.org/2000/svg"
   xmlns:svg="http://www.w3.org/2000/svg">
  <defs
     id="defs7" />
  <sodipodi:namedview
     id="namedview7"
     pagecolor="#ffffff"
     bordercolor="#000000"
     borderopacity="0.25"
     inkscape:showpageshadow="2"
     inkscape:pageopacity="0.0"
     inkscape:pagecheckerboard="0"
     inkscape:deskcolor="#d1d1d1"
     inkscape:document-units="pt"
     inkscape:zoom="9.5273438"
     inkscape:cx="34.689627"
     inkscape:cy="34.479705"
     inkscape:window-width="1920"
     inkscape:window-height="1009"
     inkscape:window-x="-8"
     inkscape:window-y="-8"
     inkscape:window-maximized="1"
     inkscape:current-layer="svg7" />
  <g
     transform="matrix(0.1,0,0,-0.1,-4.5,59.4625)"
     fill="#000000"
     stroke="none"
     id="g7"
     style="fill:#e62277;fill-opacity:1">
    <path
       d="M 236,564 C 142,535 60,421 60,320 60,216 142,105 241,76 c 66,-20 92,-20 158,0 99,29 181,140 181,244 0,104 -82,215 -181,244 -64,19 -99,19 -163,0 z M 394,548 C 480,522 560,412 560,320 560,196 444,80 320,80 257,80 206,103 155,155 53,256 53,384 155,485 c 70,71 145,90 239,63 z"
       id="path1"
       style="fill:#e62277;fill-opacity:1" />
    <path
       d="M 235,511 C 67,433 71,197 242,126 376,70 530,174 530,320 530,470 370,573 235,511 Z m 187,-31 c 61,-41 83,-84 83,-160 0,-54 -5,-73 -24,-102 -42,-61 -85,-83 -161,-83 -75,0 -119,22 -160,82 -27,40 -37,116 -21,165 14,41 64,95 106,115 45,20 136,12 177,-17 z"
       id="path2"
       style="fill:#e62277;fill-opacity:1" />
    <path
       d="m 232,438 c -28,-28 -3,-72 39,-66 30,4 47,33 33,56 -14,21 -55,27 -72,10 z m 58,-28 c 0,-24 -25,-33 -40,-14 -10,11 -10,17 0,28 15,19 40,10 40,-14 z"
       id="path3"
       style="fill:#e62277;fill-opacity:1" />
    <path
       d="m 342,438 c -28,-28 -3,-72 39,-66 30,4 47,33 33,56 -14,21 -55,27 -72,10 z m 49,-42 c -16,-19 -41,-10 -41,14 0,24 21,31 39,14 11,-10 12,-16 2,-28 z"
       id="path4"
       style="fill:#e62277;fill-opacity:1" />
    <path
       d="m 162,368 c -28,-28 -1,-75 38,-63 14,4 20,15 20,35 0,36 -33,53 -58,28 z m 38,-28 c 0,-11 -7,-20 -15,-20 -8,0 -15,9 -15,20 0,11 7,20 15,20 8,0 15,-9 15,-20 z"
       id="path5"
       style="fill:#e62277;fill-opacity:1" />
    <path
       d="m 433,373 c -22,-8 -16,-61 7,-68 39,-12 66,35 38,63 -13,13 -24,14 -45,5 z m 37,-33 c 0,-11 -7,-20 -15,-20 -8,0 -15,9 -15,20 0,11 7,20 15,20 8,0 15,-9 15,-20 z"
       id="path6"
       style="fill:#e62277;fill-opacity:1" />
    <path
       d="m 257,349 c -40,-23 -63,-123 -34,-147 16,-13 178,-13 195,0 29,24 4,126 -37,148 -25,13 -101,13 -124,-1 z m 98,-13 c 38,-16 55,-42 55,-85 0,-38 -23,-52 -62,-39 -18,7 -38,7 -56,0 -39,-13 -62,1 -62,39 0,42 16,68 53,84 40,18 32,17 72,1 z"
       id="path7"
       style="fill:#e62277;fill-opacity:1" />
  </g>
</svg>
